<mxfile host="app.diagrams.net" agent="Mozilla/5.0 (Windows NT 10.0; Win64; x64) AppleWebKit/537.36 (KHTML, like Gecko) Chrome/128.0.0.0 Safari/537.36" version="24.7.12">
  <diagram name="Página-1" id="vTEMQxeILdBno_CAV8bY">
    <mxGraphModel dx="4027" dy="1331" grid="1" gridSize="10" guides="1" tooltips="1" connect="1" arrows="1" fold="1" page="1" pageScale="1" pageWidth="827" pageHeight="1169" math="0" shadow="0">
      <root>
        <mxCell id="0" />
        <mxCell id="1" parent="0" />
        <mxCell id="zVMPEPncNIv1yJdI04NN-83" value="" style="rounded=0;whiteSpace=wrap;html=1;" vertex="1" parent="1">
          <mxGeometry x="-760" y="360" width="730" height="920" as="geometry" />
        </mxCell>
        <mxCell id="zVMPEPncNIv1yJdI04NN-58" value="" style="rounded=0;whiteSpace=wrap;html=1;" vertex="1" parent="1">
          <mxGeometry x="130" y="360" width="730" height="920" as="geometry" />
        </mxCell>
        <mxCell id="zVMPEPncNIv1yJdI04NN-52" value="" style="rounded=0;whiteSpace=wrap;html=1;" vertex="1" parent="1">
          <mxGeometry x="150" y="10" width="730" height="330" as="geometry" />
        </mxCell>
        <mxCell id="zVMPEPncNIv1yJdI04NN-6" style="edgeStyle=orthogonalEdgeStyle;rounded=0;orthogonalLoop=1;jettySize=auto;html=1;" edge="1" parent="1" source="zVMPEPncNIv1yJdI04NN-1" target="zVMPEPncNIv1yJdI04NN-5">
          <mxGeometry relative="1" as="geometry" />
        </mxCell>
        <mxCell id="zVMPEPncNIv1yJdI04NN-1" value="Inicio" style="whiteSpace=wrap;html=1;" vertex="1" parent="1">
          <mxGeometry x="320" y="20" width="120" height="60" as="geometry" />
        </mxCell>
        <mxCell id="zVMPEPncNIv1yJdI04NN-126" style="edgeStyle=orthogonalEdgeStyle;rounded=0;orthogonalLoop=1;jettySize=auto;html=1;entryX=0;entryY=0.5;entryDx=0;entryDy=0;" edge="1" parent="1" source="zVMPEPncNIv1yJdI04NN-3" target="zVMPEPncNIv1yJdI04NN-125">
          <mxGeometry relative="1" as="geometry" />
        </mxCell>
        <mxCell id="zVMPEPncNIv1yJdI04NN-3" value="Iniciar sesión" style="whiteSpace=wrap;html=1;" vertex="1" parent="1">
          <mxGeometry x="320" y="260" width="120" height="60" as="geometry" />
        </mxCell>
        <mxCell id="zVMPEPncNIv1yJdI04NN-7" style="edgeStyle=orthogonalEdgeStyle;rounded=0;orthogonalLoop=1;jettySize=auto;html=1;" edge="1" parent="1" source="zVMPEPncNIv1yJdI04NN-5" target="zVMPEPncNIv1yJdI04NN-3">
          <mxGeometry relative="1" as="geometry" />
        </mxCell>
        <mxCell id="zVMPEPncNIv1yJdI04NN-10" style="edgeStyle=orthogonalEdgeStyle;rounded=0;orthogonalLoop=1;jettySize=auto;html=1;entryX=0;entryY=0.5;entryDx=0;entryDy=0;" edge="1" parent="1" source="zVMPEPncNIv1yJdI04NN-5" target="zVMPEPncNIv1yJdI04NN-9">
          <mxGeometry relative="1" as="geometry" />
        </mxCell>
        <mxCell id="zVMPEPncNIv1yJdI04NN-5" value="¿Está registrado?" style="rhombus;whiteSpace=wrap;html=1;" vertex="1" parent="1">
          <mxGeometry x="325" y="100" width="110" height="100" as="geometry" />
        </mxCell>
        <mxCell id="zVMPEPncNIv1yJdI04NN-8" value="Si" style="text;html=1;align=center;verticalAlign=middle;resizable=0;points=[];autosize=1;strokeColor=none;fillColor=none;" vertex="1" parent="1">
          <mxGeometry x="385" y="198" width="30" height="30" as="geometry" />
        </mxCell>
        <mxCell id="zVMPEPncNIv1yJdI04NN-13" style="edgeStyle=orthogonalEdgeStyle;rounded=0;orthogonalLoop=1;jettySize=auto;html=1;entryX=1;entryY=0.5;entryDx=0;entryDy=0;" edge="1" parent="1" source="zVMPEPncNIv1yJdI04NN-9" target="zVMPEPncNIv1yJdI04NN-1">
          <mxGeometry relative="1" as="geometry">
            <Array as="points">
              <mxPoint x="650" y="150" />
              <mxPoint x="650" y="50" />
            </Array>
          </mxGeometry>
        </mxCell>
        <mxCell id="zVMPEPncNIv1yJdI04NN-16" style="rounded=0;orthogonalLoop=1;jettySize=auto;html=1;endArrow=none;endFill=0;dashed=1;dashPattern=8 8;" edge="1" parent="1" source="zVMPEPncNIv1yJdI04NN-9" target="zVMPEPncNIv1yJdI04NN-14">
          <mxGeometry relative="1" as="geometry" />
        </mxCell>
        <mxCell id="zVMPEPncNIv1yJdI04NN-9" value="Solicitar registro" style="whiteSpace=wrap;html=1;" vertex="1" parent="1">
          <mxGeometry x="490" y="120" width="120" height="60" as="geometry" />
        </mxCell>
        <mxCell id="zVMPEPncNIv1yJdI04NN-11" value="No" style="text;html=1;align=center;verticalAlign=middle;resizable=0;points=[];autosize=1;strokeColor=none;fillColor=none;" vertex="1" parent="1">
          <mxGeometry x="440" y="118" width="40" height="30" as="geometry" />
        </mxCell>
        <mxCell id="zVMPEPncNIv1yJdI04NN-14" value="Esto es de&amp;nbsp;&lt;div&gt;manera manual&lt;/div&gt;" style="ellipse;shape=cloud;whiteSpace=wrap;html=1;" vertex="1" parent="1">
          <mxGeometry x="690" y="60" width="170" height="120" as="geometry" />
        </mxCell>
        <mxCell id="zVMPEPncNIv1yJdI04NN-24" style="edgeStyle=orthogonalEdgeStyle;rounded=0;orthogonalLoop=1;jettySize=auto;html=1;entryX=0.5;entryY=0;entryDx=0;entryDy=0;" edge="1" parent="1" source="zVMPEPncNIv1yJdI04NN-18" target="zVMPEPncNIv1yJdI04NN-23">
          <mxGeometry relative="1" as="geometry" />
        </mxCell>
        <mxCell id="zVMPEPncNIv1yJdI04NN-18" value="Ingresa a la pantalla principal" style="whiteSpace=wrap;html=1;" vertex="1" parent="1">
          <mxGeometry x="320" y="370" width="120" height="60" as="geometry" />
        </mxCell>
        <mxCell id="zVMPEPncNIv1yJdI04NN-28" style="edgeStyle=orthogonalEdgeStyle;rounded=0;orthogonalLoop=1;jettySize=auto;html=1;entryX=0.5;entryY=0;entryDx=0;entryDy=0;" edge="1" parent="1" source="zVMPEPncNIv1yJdI04NN-23" target="zVMPEPncNIv1yJdI04NN-26">
          <mxGeometry relative="1" as="geometry" />
        </mxCell>
        <mxCell id="zVMPEPncNIv1yJdI04NN-47" style="edgeStyle=orthogonalEdgeStyle;rounded=0;orthogonalLoop=1;jettySize=auto;html=1;entryX=0.5;entryY=0;entryDx=0;entryDy=0;" edge="1" parent="1" source="zVMPEPncNIv1yJdI04NN-23" target="zVMPEPncNIv1yJdI04NN-45">
          <mxGeometry relative="1" as="geometry" />
        </mxCell>
        <mxCell id="zVMPEPncNIv1yJdI04NN-23" value="¿Creo proyectos?" style="rhombus;whiteSpace=wrap;html=1;" vertex="1" parent="1">
          <mxGeometry x="325" y="450" width="110" height="100" as="geometry" />
        </mxCell>
        <mxCell id="zVMPEPncNIv1yJdI04NN-30" style="edgeStyle=orthogonalEdgeStyle;rounded=0;orthogonalLoop=1;jettySize=auto;html=1;entryX=1;entryY=0.5;entryDx=0;entryDy=0;" edge="1" parent="1" source="zVMPEPncNIv1yJdI04NN-26">
          <mxGeometry relative="1" as="geometry">
            <mxPoint x="460" y="1580" as="targetPoint" />
            <Array as="points">
              <mxPoint x="740" y="750" />
              <mxPoint x="740" y="1580" />
            </Array>
          </mxGeometry>
        </mxCell>
        <mxCell id="zVMPEPncNIv1yJdI04NN-34" style="edgeStyle=orthogonalEdgeStyle;rounded=0;orthogonalLoop=1;jettySize=auto;html=1;entryX=0.5;entryY=0;entryDx=0;entryDy=0;" edge="1" parent="1" source="zVMPEPncNIv1yJdI04NN-26" target="zVMPEPncNIv1yJdI04NN-33">
          <mxGeometry relative="1" as="geometry">
            <Array as="points">
              <mxPoint x="400" y="750" />
            </Array>
          </mxGeometry>
        </mxCell>
        <mxCell id="zVMPEPncNIv1yJdI04NN-26" value="¿Quiere crear uno?" style="rhombus;whiteSpace=wrap;html=1;" vertex="1" parent="1">
          <mxGeometry x="450" y="700" width="140" height="100" as="geometry" />
        </mxCell>
        <mxCell id="zVMPEPncNIv1yJdI04NN-27" value="" style="whiteSpace=wrap;html=1;" vertex="1" parent="1">
          <mxGeometry x="340" y="1550" width="120" height="60" as="geometry" />
        </mxCell>
        <mxCell id="zVMPEPncNIv1yJdI04NN-29" value="No" style="text;html=1;align=center;verticalAlign=middle;resizable=0;points=[];autosize=1;strokeColor=none;fillColor=none;" vertex="1" parent="1">
          <mxGeometry x="445" y="470" width="40" height="30" as="geometry" />
        </mxCell>
        <mxCell id="zVMPEPncNIv1yJdI04NN-31" value="No" style="text;html=1;align=center;verticalAlign=middle;resizable=0;points=[];autosize=1;strokeColor=none;fillColor=none;" vertex="1" parent="1">
          <mxGeometry x="640" y="730" width="40" height="30" as="geometry" />
        </mxCell>
        <mxCell id="zVMPEPncNIv1yJdI04NN-41" style="edgeStyle=orthogonalEdgeStyle;rounded=0;orthogonalLoop=1;jettySize=auto;html=1;entryX=0.5;entryY=0;entryDx=0;entryDy=0;" edge="1" parent="1" source="zVMPEPncNIv1yJdI04NN-33" target="zVMPEPncNIv1yJdI04NN-40">
          <mxGeometry relative="1" as="geometry" />
        </mxCell>
        <mxCell id="zVMPEPncNIv1yJdI04NN-33" value="Se ingresa nombre, descripción, personas asociadas" style="shape=parallelogram;perimeter=parallelogramPerimeter;whiteSpace=wrap;html=1;fixedSize=1;" vertex="1" parent="1">
          <mxGeometry x="315" y="830" width="170" height="60" as="geometry" />
        </mxCell>
        <mxCell id="zVMPEPncNIv1yJdI04NN-35" value="Si" style="text;html=1;align=center;verticalAlign=middle;resizable=0;points=[];autosize=1;strokeColor=none;fillColor=none;" vertex="1" parent="1">
          <mxGeometry x="410" y="720" width="30" height="30" as="geometry" />
        </mxCell>
        <mxCell id="zVMPEPncNIv1yJdI04NN-40" value="Se crea un proyecto" style="whiteSpace=wrap;html=1;" vertex="1" parent="1">
          <mxGeometry x="340" y="930" width="120" height="60" as="geometry" />
        </mxCell>
        <mxCell id="zVMPEPncNIv1yJdI04NN-42" style="rounded=0;orthogonalLoop=1;jettySize=auto;html=1;endArrow=none;endFill=0;dashed=1;dashPattern=8 8;" edge="1" parent="1" target="zVMPEPncNIv1yJdI04NN-43">
          <mxGeometry relative="1" as="geometry">
            <mxPoint x="470" y="872" as="sourcePoint" />
          </mxGeometry>
        </mxCell>
        <mxCell id="zVMPEPncNIv1yJdI04NN-43" value="Se puede crear un&lt;div&gt;proyecto sin&amp;nbsp;&lt;/div&gt;&lt;div&gt;asociados&lt;/div&gt;" style="ellipse;shape=cloud;whiteSpace=wrap;html=1;" vertex="1" parent="1">
          <mxGeometry x="550" y="790" width="170" height="120" as="geometry" />
        </mxCell>
        <mxCell id="zVMPEPncNIv1yJdI04NN-44" value="¿Quiere asociar a mas personas?" style="rhombus;whiteSpace=wrap;html=1;" vertex="1" parent="1">
          <mxGeometry x="315" y="1020" width="170" height="100" as="geometry" />
        </mxCell>
        <mxCell id="zVMPEPncNIv1yJdI04NN-46" style="edgeStyle=orthogonalEdgeStyle;rounded=0;orthogonalLoop=1;jettySize=auto;html=1;" edge="1" parent="1" source="zVMPEPncNIv1yJdI04NN-45">
          <mxGeometry relative="1" as="geometry">
            <mxPoint x="520" y="670" as="targetPoint" />
            <Array as="points">
              <mxPoint x="410" y="590" />
              <mxPoint x="410" y="670" />
            </Array>
          </mxGeometry>
        </mxCell>
        <mxCell id="zVMPEPncNIv1yJdI04NN-45" value="¿Quiere acceder a uno?" style="rhombus;whiteSpace=wrap;html=1;" vertex="1" parent="1">
          <mxGeometry x="150" y="540" width="140" height="100" as="geometry" />
        </mxCell>
        <mxCell id="zVMPEPncNIv1yJdI04NN-48" value="Si" style="text;html=1;align=center;verticalAlign=middle;resizable=0;points=[];autosize=1;strokeColor=none;fillColor=none;" vertex="1" parent="1">
          <mxGeometry x="275" y="470" width="30" height="30" as="geometry" />
        </mxCell>
        <mxCell id="zVMPEPncNIv1yJdI04NN-49" value="No" style="text;html=1;align=center;verticalAlign=middle;resizable=0;points=[];autosize=1;strokeColor=none;fillColor=none;" vertex="1" parent="1">
          <mxGeometry x="315" y="560" width="40" height="30" as="geometry" />
        </mxCell>
        <mxCell id="zVMPEPncNIv1yJdI04NN-50" style="edgeStyle=orthogonalEdgeStyle;rounded=0;orthogonalLoop=1;jettySize=auto;html=1;entryX=0.5;entryY=0;entryDx=0;entryDy=0;" edge="1" parent="1" source="zVMPEPncNIv1yJdI04NN-40" target="zVMPEPncNIv1yJdI04NN-44">
          <mxGeometry relative="1" as="geometry" />
        </mxCell>
        <mxCell id="zVMPEPncNIv1yJdI04NN-53" value="Inicio" style="text;html=1;align=center;verticalAlign=middle;resizable=0;points=[];autosize=1;strokeColor=none;fillColor=none;" vertex="1" parent="1">
          <mxGeometry x="160" y="20" width="50" height="30" as="geometry" />
        </mxCell>
        <mxCell id="zVMPEPncNIv1yJdI04NN-59" value="Acceder proyecto" style="text;html=1;align=center;verticalAlign=middle;resizable=0;points=[];autosize=1;strokeColor=none;fillColor=none;" vertex="1" parent="1">
          <mxGeometry x="130" y="360" width="120" height="30" as="geometry" />
        </mxCell>
        <mxCell id="zVMPEPncNIv1yJdI04NN-60" value="" style="rounded=0;whiteSpace=wrap;html=1;" vertex="1" parent="1">
          <mxGeometry x="970" y="360" width="730" height="920" as="geometry" />
        </mxCell>
        <mxCell id="zVMPEPncNIv1yJdI04NN-61" style="edgeStyle=orthogonalEdgeStyle;rounded=0;orthogonalLoop=1;jettySize=auto;html=1;entryX=0.5;entryY=0;entryDx=0;entryDy=0;" edge="1" parent="1" source="zVMPEPncNIv1yJdI04NN-62">
          <mxGeometry relative="1" as="geometry">
            <mxPoint x="1220" y="450" as="targetPoint" />
          </mxGeometry>
        </mxCell>
        <mxCell id="zVMPEPncNIv1yJdI04NN-62" value="Ingresa a la pantalla principal" style="whiteSpace=wrap;html=1;" vertex="1" parent="1">
          <mxGeometry x="1160" y="370" width="120" height="60" as="geometry" />
        </mxCell>
        <mxCell id="zVMPEPncNIv1yJdI04NN-82" value="Modificar proyecto" style="text;html=1;align=center;verticalAlign=middle;resizable=0;points=[];autosize=1;strokeColor=none;fillColor=none;" vertex="1" parent="1">
          <mxGeometry x="970" y="360" width="120" height="30" as="geometry" />
        </mxCell>
        <mxCell id="zVMPEPncNIv1yJdI04NN-84" style="edgeStyle=orthogonalEdgeStyle;rounded=0;orthogonalLoop=1;jettySize=auto;html=1;entryX=0.5;entryY=0;entryDx=0;entryDy=0;" edge="1" parent="1" source="zVMPEPncNIv1yJdI04NN-85">
          <mxGeometry relative="1" as="geometry">
            <mxPoint x="-400" y="450" as="targetPoint" />
          </mxGeometry>
        </mxCell>
        <mxCell id="zVMPEPncNIv1yJdI04NN-85" value="Ingresa a la pantalla principal" style="whiteSpace=wrap;html=1;" vertex="1" parent="1">
          <mxGeometry x="-460" y="370" width="120" height="60" as="geometry" />
        </mxCell>
        <mxCell id="zVMPEPncNIv1yJdI04NN-106" value="Crear proyecto" style="text;html=1;align=center;verticalAlign=middle;resizable=0;points=[];autosize=1;strokeColor=none;fillColor=none;" vertex="1" parent="1">
          <mxGeometry x="-640" y="360" width="100" height="30" as="geometry" />
        </mxCell>
        <mxCell id="zVMPEPncNIv1yJdI04NN-111" style="edgeStyle=orthogonalEdgeStyle;rounded=0;orthogonalLoop=1;jettySize=auto;html=1;entryX=0.5;entryY=0;entryDx=0;entryDy=0;" edge="1" parent="1" source="zVMPEPncNIv1yJdI04NN-109">
          <mxGeometry relative="1" as="geometry">
            <mxPoint x="-400" y="540" as="targetPoint" />
          </mxGeometry>
        </mxCell>
        <mxCell id="zVMPEPncNIv1yJdI04NN-109" value="Crea un proyecto" style="whiteSpace=wrap;html=1;" vertex="1" parent="1">
          <mxGeometry x="-460" y="450" width="120" height="60" as="geometry" />
        </mxCell>
        <mxCell id="zVMPEPncNIv1yJdI04NN-116" style="edgeStyle=orthogonalEdgeStyle;rounded=0;orthogonalLoop=1;jettySize=auto;html=1;entryX=0.5;entryY=0;entryDx=0;entryDy=0;" edge="1" parent="1" source="zVMPEPncNIv1yJdI04NN-112" target="zVMPEPncNIv1yJdI04NN-115">
          <mxGeometry relative="1" as="geometry" />
        </mxCell>
        <mxCell id="zVMPEPncNIv1yJdI04NN-112" value="Se ingresa nombre,&amp;nbsp;&lt;div&gt;estado, descripción,&lt;/div&gt;&lt;div&gt;&lt;div&gt;personas asociadas&lt;/div&gt;&lt;/div&gt;" style="shape=parallelogram;perimeter=parallelogramPerimeter;whiteSpace=wrap;html=1;fixedSize=1;" vertex="1" parent="1">
          <mxGeometry x="-485" y="540" width="170" height="60" as="geometry" />
        </mxCell>
        <mxCell id="zVMPEPncNIv1yJdI04NN-113" style="rounded=0;orthogonalLoop=1;jettySize=auto;html=1;endArrow=none;endFill=0;dashed=1;dashPattern=8 8;" edge="1" parent="1" target="zVMPEPncNIv1yJdI04NN-114" source="zVMPEPncNIv1yJdI04NN-112">
          <mxGeometry relative="1" as="geometry">
            <mxPoint x="-330" y="572" as="sourcePoint" />
          </mxGeometry>
        </mxCell>
        <mxCell id="zVMPEPncNIv1yJdI04NN-114" value="Se puede crear un&lt;div&gt;proyecto sin&amp;nbsp;&lt;/div&gt;&lt;div&gt;asociados&lt;/div&gt;" style="ellipse;shape=cloud;whiteSpace=wrap;html=1;" vertex="1" parent="1">
          <mxGeometry x="-250" y="490" width="170" height="120" as="geometry" />
        </mxCell>
        <mxCell id="zVMPEPncNIv1yJdI04NN-118" style="edgeStyle=orthogonalEdgeStyle;rounded=0;orthogonalLoop=1;jettySize=auto;html=1;entryX=0.5;entryY=0;entryDx=0;entryDy=0;" edge="1" parent="1" source="zVMPEPncNIv1yJdI04NN-115" target="zVMPEPncNIv1yJdI04NN-117">
          <mxGeometry relative="1" as="geometry">
            <Array as="points">
              <mxPoint x="-500" y="710" />
            </Array>
          </mxGeometry>
        </mxCell>
        <mxCell id="zVMPEPncNIv1yJdI04NN-123" style="edgeStyle=orthogonalEdgeStyle;rounded=0;orthogonalLoop=1;jettySize=auto;html=1;entryX=0.5;entryY=0;entryDx=0;entryDy=0;" edge="1" parent="1" source="zVMPEPncNIv1yJdI04NN-115" target="zVMPEPncNIv1yJdI04NN-122">
          <mxGeometry relative="1" as="geometry" />
        </mxCell>
        <mxCell id="zVMPEPncNIv1yJdI04NN-115" value="¿Quiere acceder?" style="rhombus;whiteSpace=wrap;html=1;" vertex="1" parent="1">
          <mxGeometry x="-455" y="660" width="110" height="100" as="geometry" />
        </mxCell>
        <mxCell id="zVMPEPncNIv1yJdI04NN-132" style="edgeStyle=orthogonalEdgeStyle;rounded=0;orthogonalLoop=1;jettySize=auto;html=1;entryX=0.5;entryY=0;entryDx=0;entryDy=0;" edge="1" parent="1" source="zVMPEPncNIv1yJdI04NN-117" target="zVMPEPncNIv1yJdI04NN-129">
          <mxGeometry relative="1" as="geometry">
            <Array as="points">
              <mxPoint x="-500" y="1000" />
              <mxPoint x="-405" y="1000" />
            </Array>
          </mxGeometry>
        </mxCell>
        <mxCell id="zVMPEPncNIv1yJdI04NN-117" value="Ir a acceder a proyecto" style="whiteSpace=wrap;html=1;" vertex="1" parent="1">
          <mxGeometry x="-560" y="780" width="120" height="60" as="geometry" />
        </mxCell>
        <mxCell id="zVMPEPncNIv1yJdI04NN-120" value="Si" style="text;html=1;align=center;verticalAlign=middle;resizable=0;points=[];autosize=1;strokeColor=none;fillColor=none;" vertex="1" parent="1">
          <mxGeometry x="-490" y="680" width="30" height="30" as="geometry" />
        </mxCell>
        <mxCell id="zVMPEPncNIv1yJdI04NN-131" style="edgeStyle=orthogonalEdgeStyle;rounded=0;orthogonalLoop=1;jettySize=auto;html=1;" edge="1" parent="1" source="zVMPEPncNIv1yJdI04NN-121" target="zVMPEPncNIv1yJdI04NN-129">
          <mxGeometry relative="1" as="geometry">
            <Array as="points">
              <mxPoint x="-335" y="1000" />
              <mxPoint x="-405" y="1000" />
            </Array>
          </mxGeometry>
        </mxCell>
        <mxCell id="zVMPEPncNIv1yJdI04NN-121" value="Ir a modificar al proyecto" style="whiteSpace=wrap;html=1;" vertex="1" parent="1">
          <mxGeometry x="-395" y="890" width="120" height="60" as="geometry" />
        </mxCell>
        <mxCell id="zVMPEPncNIv1yJdI04NN-128" style="edgeStyle=orthogonalEdgeStyle;rounded=0;orthogonalLoop=1;jettySize=auto;html=1;" edge="1" parent="1" source="zVMPEPncNIv1yJdI04NN-122" target="zVMPEPncNIv1yJdI04NN-121">
          <mxGeometry relative="1" as="geometry">
            <Array as="points">
              <mxPoint x="-335" y="800" />
            </Array>
          </mxGeometry>
        </mxCell>
        <mxCell id="zVMPEPncNIv1yJdI04NN-130" style="edgeStyle=orthogonalEdgeStyle;rounded=0;orthogonalLoop=1;jettySize=auto;html=1;entryX=1;entryY=0.5;entryDx=0;entryDy=0;" edge="1" parent="1" source="zVMPEPncNIv1yJdI04NN-122" target="zVMPEPncNIv1yJdI04NN-129">
          <mxGeometry relative="1" as="geometry">
            <Array as="points">
              <mxPoint x="-90" y="800" />
              <mxPoint x="-90" y="1090" />
            </Array>
          </mxGeometry>
        </mxCell>
        <mxCell id="zVMPEPncNIv1yJdI04NN-122" value="¿Quiere modificarlo?" style="rhombus;whiteSpace=wrap;html=1;" vertex="1" parent="1">
          <mxGeometry x="-290" y="750" width="110" height="100" as="geometry" />
        </mxCell>
        <mxCell id="zVMPEPncNIv1yJdI04NN-125" value="Fin" style="whiteSpace=wrap;html=1;" vertex="1" parent="1">
          <mxGeometry x="500" y="260" width="120" height="60" as="geometry" />
        </mxCell>
        <mxCell id="zVMPEPncNIv1yJdI04NN-127" value="No" style="text;html=1;align=center;verticalAlign=middle;resizable=0;points=[];autosize=1;strokeColor=none;fillColor=none;" vertex="1" parent="1">
          <mxGeometry x="-315" y="680" width="40" height="30" as="geometry" />
        </mxCell>
        <mxCell id="zVMPEPncNIv1yJdI04NN-129" value="Fin" style="whiteSpace=wrap;html=1;" vertex="1" parent="1">
          <mxGeometry x="-465" y="1060" width="120" height="60" as="geometry" />
        </mxCell>
        <mxCell id="zVMPEPncNIv1yJdI04NN-133" value="Si" style="text;html=1;align=center;verticalAlign=middle;resizable=0;points=[];autosize=1;strokeColor=none;fillColor=none;" vertex="1" parent="1">
          <mxGeometry x="-330" y="770" width="30" height="30" as="geometry" />
        </mxCell>
        <mxCell id="zVMPEPncNIv1yJdI04NN-134" value="No" style="text;html=1;align=center;verticalAlign=middle;resizable=0;points=[];autosize=1;strokeColor=none;fillColor=none;" vertex="1" parent="1">
          <mxGeometry x="-155" y="770" width="40" height="30" as="geometry" />
        </mxCell>
        <mxCell id="zVMPEPncNIv1yJdI04NN-135" value="Ingresa a modificar" style="whiteSpace=wrap;html=1;" vertex="1" parent="1">
          <mxGeometry x="1160" y="450" width="120" height="60" as="geometry" />
        </mxCell>
      </root>
    </mxGraphModel>
  </diagram>
</mxfile>
